<?xml version="1.0" encoding="UTF-8"?>
<!--Generator: Apple Native CoreSVG 175.5-->
<!DOCTYPE svg
PUBLIC "-//W3C//DTD SVG 1.1//EN"
       "http://www.w3.org/Graphics/SVG/1.1/DTD/svg11.dtd">
<svg version="1.1" xmlns="http://www.w3.org/2000/svg" xmlns:xlink="http://www.w3.org/1999/xlink" width="3300" height="2200">
 <!--glyph: "uni1015CA.medium", point size: 100.0, font version: "18.0d12e2", template writer version: "101"-->
 <style>.monochrome-0 {fill:#000000}

.SFSymbolsPreview000000 {fill:#000000;opacity:1.0}
</style>
 <g id="Notes">
  <rect height="2200" id="artboard" style="fill:white;opacity:1" width="3300" x="0" y="0"/>
  <line style="fill:none;stroke:black;opacity:1;stroke-width:0.5;" x1="263" x2="3036" y1="292" y2="292"/>
  <text style="stroke:none;fill:black;font-family:sans-serif;font-size:13;font-weight:bold;" transform="matrix(1 0 0 1 263 322)">Weight/Scale Variations</text>
  <text style="stroke:none;fill:black;font-family:sans-serif;font-size:13;text-anchor:middle;" transform="matrix(1 0 0 1 559.711 322)">Ultralight</text>
  <text style="stroke:none;fill:black;font-family:sans-serif;font-size:13;text-anchor:middle;" transform="matrix(1 0 0 1 856.422 322)">Thin</text>
  <text style="stroke:none;fill:black;font-family:sans-serif;font-size:13;text-anchor:middle;" transform="matrix(1 0 0 1 1153.13 322)">Light</text>
  <text style="stroke:none;fill:black;font-family:sans-serif;font-size:13;text-anchor:middle;" transform="matrix(1 0 0 1 1449.84 322)">Regular</text>
  <text style="stroke:none;fill:black;font-family:sans-serif;font-size:13;text-anchor:middle;" transform="matrix(1 0 0 1 1746.56 322)">Medium</text>
  <text style="stroke:none;fill:black;font-family:sans-serif;font-size:13;text-anchor:middle;" transform="matrix(1 0 0 1 2043.27 322)">Semibold</text>
  <text style="stroke:none;fill:black;font-family:sans-serif;font-size:13;text-anchor:middle;" transform="matrix(1 0 0 1 2339.98 322)">Bold</text>
  <text style="stroke:none;fill:black;font-family:sans-serif;font-size:13;text-anchor:middle;" transform="matrix(1 0 0 1 2636.69 322)">Heavy</text>
  <text style="stroke:none;fill:black;font-family:sans-serif;font-size:13;text-anchor:middle;" transform="matrix(1 0 0 1 2933.4 322)">Black</text>
  <line style="fill:none;stroke:black;opacity:1;stroke-width:0.5;" x1="263" x2="3036" y1="1903" y2="1903"/>
  <g transform="matrix(1 0 0 1 263 1933)">
   <path d="M9.24805 0.830078C13.5547 0.830078 17.1387-2.74414 17.1387-7.05078C17.1387-11.3574 13.5449-14.9316 9.23828-14.9316C4.94141-14.9316 1.36719-11.3574 1.36719-7.05078C1.36719-2.74414 4.95117 0.830078 9.24805 0.830078ZM9.24805-0.654297C5.70312-0.654297 2.87109-3.49609 2.87109-7.05078C2.87109-10.6055 5.69336-13.4473 9.23828-13.4473C12.793-13.4473 15.6445-10.6055 15.6445-7.05078C15.6445-3.49609 12.8027-0.654297 9.24805-0.654297ZM5.6543-7.05078C5.6543-6.62109 5.95703-6.32812 6.40625-6.32812L8.50586-6.32812L8.50586-4.20898C8.50586-3.76953 8.79883-3.4668 9.22852-3.4668C9.67773-3.4668 9.9707-3.76953 9.9707-4.20898L9.9707-6.32812L12.0898-6.32812C12.5293-6.32812 12.832-6.62109 12.832-7.05078C12.832-7.49023 12.5293-7.79297 12.0898-7.79297L9.9707-7.79297L9.9707-9.90234C9.9707-10.3516 9.67773-10.6543 9.22852-10.6543C8.79883-10.6543 8.50586-10.3516 8.50586-9.90234L8.50586-7.79297L6.40625-7.79297C5.95703-7.79297 5.6543-7.49023 5.6543-7.05078Z"/>
  </g>
  <g transform="matrix(1 0 0 1 281.867 1933)">
   <path d="M11.709 2.91016C17.1582 2.91016 21.6699-1.61133 21.6699-7.05078C21.6699-12.5 17.1484-17.0117 11.6992-17.0117C6.25977-17.0117 1.74805-12.5 1.74805-7.05078C1.74805-1.61133 6.26953 2.91016 11.709 2.91016ZM11.709 1.25C7.09961 1.25 3.41797-2.44141 3.41797-7.05078C3.41797-11.6602 7.08984-15.3516 11.6992-15.3516C16.3086-15.3516 20.0098-11.6602 20.0098-7.05078C20.0098-2.44141 16.3184 1.25 11.709 1.25ZM7.17773-7.05078C7.17773-6.57227 7.50977-6.25 8.00781-6.25L10.8789-6.25L10.8789-3.36914C10.8789-2.88086 11.2109-2.53906 11.6895-2.53906C12.1777-2.53906 12.5195-2.87109 12.5195-3.36914L12.5195-6.25L15.4004-6.25C15.8887-6.25 16.2305-6.57227 16.2305-7.05078C16.2305-7.53906 15.8887-7.88086 15.4004-7.88086L12.5195-7.88086L12.5195-10.752C12.5195-11.25 12.1777-11.5918 11.6895-11.5918C11.2109-11.5918 10.8789-11.25 10.8789-10.752L10.8789-7.88086L8.00781-7.88086C7.50977-7.88086 7.17773-7.53906 7.17773-7.05078Z"/>
  </g>
  <g transform="matrix(1 0 0 1 305.646 1933)">
   <path d="M14.9707 5.66406C21.9336 5.66406 27.6953-0.0976562 27.6953-7.05078C27.6953-14.0137 21.9238-19.7754 14.9609-19.7754C8.00781-19.7754 2.25586-14.0137 2.25586-7.05078C2.25586-0.0976562 8.01758 5.66406 14.9707 5.66406ZM14.9707 3.84766C8.93555 3.84766 4.08203-1.01562 4.08203-7.05078C4.08203-13.0957 8.92578-17.9492 14.9609-17.9492C21.0059-17.9492 25.8691-13.0957 25.8691-7.05078C25.8691-1.01562 21.0156 3.84766 14.9707 3.84766ZM9.19922-7.05078C9.19922-6.5332 9.57031-6.17188 10.1172-6.17188L14.0625-6.17188L14.0625-2.2168C14.0625-1.67969 14.4336-1.29883 14.9512-1.29883C15.4883-1.29883 15.8594-1.66992 15.8594-2.2168L15.8594-6.17188L19.8145-6.17188C20.3516-6.17188 20.7324-6.5332 20.7324-7.05078C20.7324-7.59766 20.3613-7.96875 19.8145-7.96875L15.8594-7.96875L15.8594-11.9141C15.8594-12.4609 15.4883-12.8418 14.9512-12.8418C14.4336-12.8418 14.0625-12.4609 14.0625-11.9141L14.0625-7.96875L10.1172-7.96875C9.57031-7.96875 9.19922-7.59766 9.19922-7.05078Z"/>
  </g>
  <text style="stroke:none;fill:black;font-family:sans-serif;font-size:13;font-weight:bold;" transform="matrix(1 0 0 1 263 1953)">Design Variations</text>
  <text style="stroke:none;fill:black;font-family:sans-serif;font-size:13;" transform="matrix(1 0 0 1 263 1971)">Symbols are supported in up to nine weights and three scales.</text>
  <text style="stroke:none;fill:black;font-family:sans-serif;font-size:13;" transform="matrix(1 0 0 1 263 1989)">For optimal layout with text and other symbols, vertically align</text>
  <text style="stroke:none;fill:black;font-family:sans-serif;font-size:13;" transform="matrix(1 0 0 1 263 2007)">symbols with the adjacent text.</text>
  <line style="fill:none;stroke:#00AEEF;stroke-width:0.5;opacity:1.0;" x1="776" x2="776" y1="1919" y2="1933"/>
  <g transform="matrix(1 0 0 1 776 1933)">
   <path d="M3.31055 0.15625C3.82812 0.15625 4.08203-0.0390625 4.26758-0.585938L5.52734-4.0332L11.2891-4.0332L12.5488-0.585938C12.7344-0.0390625 12.9883 0.15625 13.4961 0.15625C14.0137 0.15625 14.3457-0.15625 14.3457-0.644531C14.3457-0.810547 14.3164-0.966797 14.2383-1.17188L9.6582-13.3691C9.43359-13.9648 9.0332-14.2676 8.4082-14.2676C7.80273-14.2676 7.39258-13.9746 7.17773-13.3789L2.59766-1.16211C2.51953-0.957031 2.49023-0.800781 2.49023-0.634766C2.49023-0.146484 2.80273 0.15625 3.31055 0.15625ZM6.00586-5.51758L8.37891-12.0898L8.42773-12.0898L10.8008-5.51758Z"/>
  </g>
  <line style="fill:none;stroke:#00AEEF;stroke-width:0.5;opacity:1.0;" x1="793.197" x2="793.197" y1="1919" y2="1933"/>
  <text style="stroke:none;fill:black;font-family:sans-serif;font-size:13;font-weight:bold;" transform="matrix(1 0 0 1 776 1953)">Margins</text>
  <text style="stroke:none;fill:black;font-family:sans-serif;font-size:13;" transform="matrix(1 0 0 1 776 1971)">Leading and trailing margins on the left and right side of each symbol</text>
  <text style="stroke:none;fill:black;font-family:sans-serif;font-size:13;" transform="matrix(1 0 0 1 776 1989)">can be adjusted by modifying the x-location of the margin guidelines.</text>
  <text style="stroke:none;fill:black;font-family:sans-serif;font-size:13;" transform="matrix(1 0 0 1 776 2007)">Modifications are automatically applied proportionally to all</text>
  <text style="stroke:none;fill:black;font-family:sans-serif;font-size:13;" transform="matrix(1 0 0 1 776 2025)">scales and weights.</text>
  <g transform="matrix(1 0 0 1 1289 1933)">
   <path d="M2.8418 1.86523L4.54102 3.57422C5.40039 4.44336 6.38672 4.38477 7.31445 3.35938L18.0078-8.42773L17.041-9.4043L6.42578 2.27539C6.07422 2.67578 5.74219 2.77344 5.27344 2.30469L4.10156 1.14258C3.63281 0.683594 3.74023 0.341797 4.14062-0.0195312L15.6152-10.8203L14.6387-11.7871L3.04688-0.898438C2.06055 0.0195312 1.98242 0.996094 2.8418 1.86523ZM9.25781-16.3281C8.83789-15.918 8.80859-15.3418 9.04297-14.9512C9.27734-14.5898 9.73633-14.3555 10.3809-14.5215C11.8457-14.8633 13.3691-14.9219 14.7949-13.9844L14.209-12.5293C13.8672-11.6992 14.043-11.1133 14.5801-10.5664L16.875-8.25195C17.3633-7.76367 17.7734-7.74414 18.3398-7.8418L19.4043-8.03711L20.0684-7.36328L20.0293-6.80664C19.9902-6.30859 20.1172-5.92773 20.6055-5.44922L21.3672-4.70703C21.8457-4.22852 22.4609-4.19922 22.9297-4.66797L25.8398-7.58789C26.3086-8.05664 26.2891-8.65234 25.8105-9.13086L25.0391-9.89258C24.5605-10.3711 24.1895-10.5273 23.7109-10.4883L23.1348-10.4395L22.4902-11.0742L22.7344-12.1973C22.8613-12.7637 22.7051-13.2031 22.1191-13.7891L19.9219-15.9766C16.582-19.2969 12.1484-19.2188 9.25781-16.3281ZM10.752-15.957C13.1836-17.7344 16.4746-17.4316 18.7012-15.2051L21.1328-12.793C21.3672-12.5586 21.4062-12.373 21.3379-12.0312L21.0156-10.5469L22.5195-9.0625L23.5059-9.12109C23.7598-9.13086 23.8379-9.11133 24.0332-8.91602L24.6094-8.33984L22.168-5.89844L21.5918-6.47461C21.3965-6.66992 21.3672-6.74805 21.377-7.01172L21.4453-7.98828L19.9512-9.47266L18.4277-9.21875C18.1055-9.15039 17.959-9.17969 17.7148-9.41406L15.7129-11.416C15.459-11.6504 15.4297-11.8164 15.5859-12.1875L16.4648-14.2773C14.9023-15.7324 12.8711-16.3574 10.8398-15.7617C10.6836-15.7227 10.625-15.8496 10.752-15.957Z"/>
  </g>
  <text style="stroke:none;fill:black;font-family:sans-serif;font-size:13;font-weight:bold;" transform="matrix(1 0 0 1 1289 1953)">Exporting</text>
  <text style="stroke:none;fill:black;font-family:sans-serif;font-size:13;" transform="matrix(1 0 0 1 1289 1971)">Symbols should be outlined when exporting to ensure the</text>
  <text style="stroke:none;fill:black;font-family:sans-serif;font-size:13;" transform="matrix(1 0 0 1 1289 1989)">design is preserved when submitting to Xcode.</text>
  <text id="template-version" style="stroke:none;fill:black;font-family:sans-serif;font-size:13;text-anchor:end;" transform="matrix(1 0 0 1 3036 1933)">Template v.4.0</text>
  <text style="stroke:none;fill:black;font-family:sans-serif;font-size:13;text-anchor:end;" transform="matrix(1 0 0 1 3036 1951)">Requires Xcode 14 or greater</text>
  <text id="descriptive-name" style="stroke:none;fill:black;font-family:sans-serif;font-size:13;text-anchor:end;" transform="matrix(1 0 0 1 3036 1969)">Generated from basketball.fill</text>
  <text style="stroke:none;fill:black;font-family:sans-serif;font-size:13;text-anchor:end;" transform="matrix(1 0 0 1 3036 1987)">Typeset at 100 points</text>
  <text style="stroke:none;fill:black;font-family:sans-serif;font-size:13;" transform="matrix(1 0 0 1 263 726)">Small</text>
  <text style="stroke:none;fill:black;font-family:sans-serif;font-size:13;" transform="matrix(1 0 0 1 263 1156)">Medium</text>
  <text style="stroke:none;fill:black;font-family:sans-serif;font-size:13;" transform="matrix(1 0 0 1 263 1586)">Large</text>
 </g>
 <g id="Guides">
  <g id="H-reference" style="fill:#27AAE1;stroke:none;" transform="matrix(1 0 0 1 339 696)">
   <path d="M0.993654 0L3.63775 0L29.3281-67.1323L30.0303-67.1323L30.0303-70.459L28.1226-70.459ZM11.6885-24.4799L46.9815-24.4799L46.2315-26.7285L12.4385-26.7285ZM55.1196 0L57.7637 0L30.6382-70.459L29.4326-70.459L29.4326-67.1323Z"/>
  </g>
  <line id="Baseline-S" style="fill:none;stroke:#27AAE1;opacity:1;stroke-width:0.5;" x1="263" x2="3036" y1="696" y2="696"/>
  <line id="Capline-S" style="fill:none;stroke:#27AAE1;opacity:1;stroke-width:0.5;" x1="263" x2="3036" y1="625.541" y2="625.541"/>
  <g id="H-reference" style="fill:#27AAE1;stroke:none;" transform="matrix(1 0 0 1 339 1126)">
   <path d="M0.993654 0L3.63775 0L29.3281-67.1323L30.0303-67.1323L30.0303-70.459L28.1226-70.459ZM11.6885-24.4799L46.9815-24.4799L46.2315-26.7285L12.4385-26.7285ZM55.1196 0L57.7637 0L30.6382-70.459L29.4326-70.459L29.4326-67.1323Z"/>
  </g>
  <line id="Baseline-M" style="fill:none;stroke:#27AAE1;opacity:1;stroke-width:0.5;" x1="263" x2="3036" y1="1126" y2="1126"/>
  <line id="Capline-M" style="fill:none;stroke:#27AAE1;opacity:1;stroke-width:0.5;" x1="263" x2="3036" y1="1055.54" y2="1055.54"/>
  <g id="H-reference" style="fill:#27AAE1;stroke:none;" transform="matrix(1 0 0 1 339 1556)">
   <path d="M0.993654 0L3.63775 0L29.3281-67.1323L30.0303-67.1323L30.0303-70.459L28.1226-70.459ZM11.6885-24.4799L46.9815-24.4799L46.2315-26.7285L12.4385-26.7285ZM55.1196 0L57.7637 0L30.6382-70.459L29.4326-70.459L29.4326-67.1323Z"/>
  </g>
  <line id="Baseline-L" style="fill:none;stroke:#27AAE1;opacity:1;stroke-width:0.5;" x1="263" x2="3036" y1="1556" y2="1556"/>
  <line id="Capline-L" style="fill:none;stroke:#27AAE1;opacity:1;stroke-width:0.5;" x1="263" x2="3036" y1="1485.54" y2="1485.54"/>
  <line id="left-margin-Ultralight-S" style="fill:none;stroke:#00AEEF;stroke-width:0.5;opacity:1.0;" x1="515.649" x2="515.649" y1="600.785" y2="720.121"/>
  <line id="right-margin-Ultralight-S" style="fill:none;stroke:#00AEEF;stroke-width:0.5;opacity:1.0;" x1="603.773" x2="603.773" y1="600.785" y2="720.121"/>
  <line id="left-margin-Regular-S" style="fill:none;stroke:#00AEEF;stroke-width:0.5;opacity:1.0;" x1="1403.58" x2="1403.58" y1="600.785" y2="720.121"/>
  <line id="right-margin-Regular-S" style="fill:none;stroke:#00AEEF;stroke-width:0.5;opacity:1.0;" x1="1496.11" x2="1496.11" y1="600.785" y2="720.121"/>
  <line id="left-margin-Black-S" style="fill:none;stroke:#00AEEF;stroke-width:0.5;opacity:1.0;" x1="2884.57" x2="2884.57" y1="600.785" y2="720.121"/>
  <line id="right-margin-Black-S" style="fill:none;stroke:#00AEEF;stroke-width:0.5;opacity:1.0;" x1="2982.23" x2="2982.23" y1="600.785" y2="720.121"/>
 </g>
 <g id="Symbols">
  <g id="Black-S" transform="matrix(1 0 0 1 2884.57 696)">
   <path class="monochrome-0 SFSymbolsPreview000000" d="M41.9922-50.6836C40.332-50.1465 38.7695-49.5117 37.207-48.8281C39.9902-34.2285 47.8027-14.3066 64.0137 3.95508C71.1426 1.17188 77.3438-3.51562 81.9824-9.47266C78.8574-31.2012 50.0488-36.3281 41.9922-50.6836ZM87.1582-18.1152C89.502-23.3398 90.8203-29.1016 90.8203-35.2051C90.8203-38.5254 90.4297-41.7969 89.6973-44.873C80.4199-50.7812 70.8496-53.6621 60.1074-53.6621C56.4453-53.6621 52.8809-53.3203 49.4629-52.6855C57.5195-42.1875 81.6895-36.1816 87.1582-18.1152ZM27.8809-43.4082C27.0996-26.6602 20.7031-14.4043 35.9863 4.78516C40.0391 6.10352 44.3359 6.78711 48.8281 6.78711C51.3672 6.78711 53.8574 6.54297 56.2988 6.10352C41.748-11.2305 33.9355-30.127 30.7617-45.3613C29.7852-44.7266 28.8574-44.0918 27.8809-43.4082ZM46.8262-59.4727C51.0742-60.4492 55.5176-60.9375 60.1074-60.9375C69.1406-60.9375 78.1738-58.8867 85.6445-55.3711C80.5176-64.6484 72.0215-71.8262 61.7676-75.1465C51.1719-72.8516 46.1914-64.5508 46.7773-59.8633C46.8262-59.4727 46.8262-59.4727 46.8262-59.4727ZM20.0195-36.5723C15.7715-32.1777 12.207-27.2461 9.22852-21.2891C11.9629-13.5254 16.8945-6.78711 23.3398-1.85547C17.1875-12.0605 18.75-25 20.0195-36.5723ZM36.1816-56.1523C37.3535-56.6406 38.5254-57.0801 39.6973-57.4707C39.5996-58.252 39.5508-59.0332 39.5508-59.8633C39.5508-66.7969 43.4082-73.5352 51.3672-77.0996C50.5371-77.1484 49.6582-77.1973 48.8281-77.1973C45.8496-77.1973 42.9199-76.9043 40.1367-76.2695C36.5723-69.1895 35.5469-63.916 36.1816-56.1523ZM6.98242-31.8848C10.791-37.6465 15.4785-42.7734 20.8496-47.0703C20.8496-47.5098 20.8496-47.998 20.8496-48.4375C20.8496-50.8301 19.8242-55.3223 13.2324-57.4707C9.17969-50.9766 6.83594-43.3594 6.83594-35.2051C6.83594-34.082 6.88477-32.959 6.98242-31.8848ZM27.5879-51.7578C28.2227-52.1484 28.9062-52.4902 29.541-52.8809C28.7598-59.2773 28.4668-65.5762 31.4941-73.4375C26.2207-71.0449 21.5332-67.5781 17.6758-63.3301C23.0957-62.5488 26.3672-56.9824 27.5879-51.7578Z"/>
  </g>
  <g id="Regular-S" transform="matrix(1 0 0 1 1403.58 696)">
   <path class="monochrome-0 SFSymbolsPreview000000" d="M38.0859-53.3691C36.0352-52.6855 34.0332-51.8066 32.0801-50.9277C34.4727-36.3281 41.8945-16.1621 57.7637 2.39258C65.918-0.146484 72.9492-5.27344 77.9297-12.0117C77.9297-31.1523 45.459-36.8164 38.0859-53.3691ZM81.8359-18.457C84.3262-23.584 85.6934-29.2969 85.6934-35.2539C85.6934-40.332 84.668-45.2148 82.8613-49.707C74.5117-54.1504 65.9668-56.3965 56.4453-56.3965C51.7578-56.3965 47.2168-55.8594 42.9199-54.7852C49.3164-42.3828 76.0742-36.6699 81.8359-18.457ZM23.9258-46.0938C24.0234-27.9785 15.7227-7.22656 34.2773 2.24609C38.0371 3.4668 42.0898 4.15039 46.2402 4.15039C48.3887 4.15039 50.4395 4.00391 52.4414 3.66211C37.793-14.1602 30.3711-33.5449 27.6855-48.5352C26.416-47.8027 25.1465-47.0215 23.9258-46.0938ZM41.6016-59.4727C46.3379-60.6445 51.2695-61.2793 56.4453-61.2793C64.2578-61.2793 72.0703-59.7168 79.0039-56.9336C73.3887-65.332 64.6973-71.5332 54.5898-73.7793C46.4355-71.3379 41.3086-67.1387 41.5527-60.3027C41.5527-60.0586 41.6016-59.7168 41.6016-59.4727ZM18.8477-42.1387C14.5508-38.2324 10.5957-33.6914 7.42188-28.5645C8.93555-19.9707 13.2812-12.3047 19.5312-6.49414C15.0879-17.2852 18.2129-30.6152 18.8477-42.1387ZM31.4941-55.957C33.2031-56.7383 34.9609-57.4219 36.7676-58.0566C36.6699-58.7891 36.6211-59.5215 36.6211-60.3027C36.6211-66.3086 39.6973-71.3867 44.6289-74.6094C44.5312-74.6094 44.4824-74.6094 44.3848-74.6094C40.2344-74.4629 36.2305-73.584 32.4707-72.168C31.6895-69.0918 30.7617-63.7207 31.4941-55.957ZM6.83594-36.377C10.3027-40.918 14.4043-45.0195 18.9453-48.5352C18.8965-48.6328 18.8965-48.7793 18.8965-48.9258C18.75-51.709 17.041-56.9824 13.916-57.5684C9.7168-51.6113 7.17773-44.4824 6.83594-36.8164C6.83594-36.6211 6.83594-36.5234 6.83594-36.377ZM23.4375-51.6602C24.6094-52.3926 25.7324-53.0762 26.9531-53.7598C26.1719-60.498 26.4648-66.1133 27.5879-69.873C23.4863-67.627 19.873-64.6973 16.7969-61.2793C20.3613-60.2051 22.6074-55.4688 23.4375-51.6602Z"/>
  </g>
  <g id="Ultralight-S" transform="matrix(1 0 0 1 515.649 696)">
   <path class="monochrome-0 SFSymbolsPreview000000" d="M37.3594-53.4146C34.4004-52.4585 31.5811-51.2617 28.856-49.7925C31.0669-36.1011 37.9893-17.0703 53.0411 0.848645C62.376-1.46337 70.4063-7.4077 75.4776-15.372C72.2535-32.8325 42.5528-38.2695 37.3594-53.4146ZM76.9771-17.8667C79.7398-23.0845 81.2886-28.979 81.2886-35.2539C81.2886-40.9678 79.9908-46.4409 77.5938-51.2964C70.2432-54.4228 62.4702-56.1694 54.4473-56.1694C49.2149-56.1694 44.1743-55.4507 39.3325-54.0586C44.1397-40.5664 71.6695-35.1714 76.9771-17.8667ZM21.9278-45.458C22.1162-30.9302 16.1768-13.9926 25.5133-3.11226C30.9532 0.106472 37.3218 1.97072 44.0606 1.97072C46.3452 1.97072 48.5777 1.77883 50.7158 1.39162C36.2944-16.249 29.3721-34.8618 27.0044-48.7622C25.2354-47.7573 23.5571-46.6582 21.9278-45.458ZM38.8316-56.0215C43.7949-57.4658 49.0445-58.2823 54.4473-58.2823C61.9419-58.2823 69.3003-56.7198 76.3247-53.7549C70.982-62.9707 61.8819-69.6714 51.1841-71.7813C43.5293-69.7031 38.6294-65.0952 38.6465-58.1685C38.6465-57.4702 38.6953-56.7652 38.8316-56.0215ZM19.8013-43.8188C14.9595-39.958 10.3232-34.645 7.24024-29.7905C8.66309-20.2886 13.6899-11.9414 20.939-6.17627C15.542-17.1489 19.7114-31.5688 19.8013-43.8188ZM28.5879-52.0064C31.2051-53.3325 33.9619-54.5156 36.7676-55.4229C36.6245-56.3369 36.5303-57.2056 36.5303-58.1685C36.5303-64.7193 40.6509-69.8428 46.8086-72.3843C45.8935-72.4297 44.9365-72.4751 43.9761-72.4751C38.9629-72.4649 34.2324-71.4497 29.9278-69.6704C27.9204-64.7779 27.7193-59.2251 28.5879-52.0064ZM6.92676-32.7442C9.98487-37.6485 14.9038-42.7036 19.7627-46.4463C19.7593-46.8164 19.7593-47.1445 19.7139-47.5181C19.522-50.3467 17.4497-56.6191 13.4165-56.2969C9.30811-50.2944 6.85987-43.0747 6.83594-35.3179C6.83594-34.4868 6.88135-33.6172 6.92676-32.7442ZM21.8027-47.8911C23.3379-48.9868 25.0059-50.0337 26.6807-50.9898C25.6724-58.4092 25.8745-64.2969 27.5425-68.5562C22.5781-66.083 18.1929-62.5176 14.7988-58.1914C19.544-57.2989 21.4268-51.6997 21.8027-47.8911Z"/>
  </g>
 </g>
</svg>
